<svg width="21" height="21" viewBox="0 0 21 21" fill="none" xmlns="http://www.w3.org/2000/svg">
<g clip-path="url(#clip0_216_1554)">
<path d="M19.412 0.791163C19.227 0.671079 19.0202 0.588625 18.8033 0.54851C18.5864 0.508396 18.3637 0.511407 18.148 0.557372C17.9322 0.603337 17.7277 0.691354 17.5459 0.816397C17.3642 0.94144 17.2089 1.10106 17.0889 1.28613L7.6767 15.7942L3.08648 11.55C2.92453 11.4003 2.73467 11.2839 2.52775 11.2075C2.32082 11.1312 2.10088 11.0963 1.88048 11.1049C1.43537 11.1223 1.0154 11.3159 0.712983 11.643C0.410564 11.97 0.250458 12.4038 0.267889 12.849C0.28532 13.2941 0.478859 13.714 0.80593 14.0165L6.8329 19.5888C6.8329 19.5888 7.00591 19.7377 7.08598 19.7898C7.27103 19.91 7.47794 19.9925 7.69489 20.0326C7.91185 20.0728 8.13459 20.0698 8.35039 20.0238C8.56619 19.9779 8.77081 19.8898 8.95257 19.7647C9.13432 19.6396 9.28964 19.48 9.40965 19.2948L19.907 3.11427C20.0271 2.92924 20.1096 2.72238 20.1497 2.50548C20.1898 2.28858 20.1868 2.06591 20.1408 1.85017C20.0948 1.63444 20.0068 1.42988 19.8818 1.24817C19.7567 1.06646 19.5971 0.911168 19.412 0.791163Z" fill="#9B5A8A"/>
</g>
<defs>
<clipPath id="clip0_216_1554">
<rect width="20.1571" height="20.1571" fill="white" transform="translate(0.117676 0.0212402)"/>
</clipPath>
</defs>
</svg>
