<svg width="74" height="78" viewBox="0 0 74 78" fill="none" xmlns="http://www.w3.org/2000/svg">
<path d="M55.2122 3.5C55.2122 4.97276 56.4061 6.16667 57.8789 6.16667C59.3517 6.16667 60.5456 4.97276 60.5456 3.5C60.5456 2.02724 59.3517 0.833333 57.8789 0.833333C56.4061 0.833333 55.2122 2.02724 55.2122 3.5ZM73.1198 53.4665C73.3775 53.5659 73.6669 53.4376 73.7663 53.18C73.8657 52.9223 73.7374 52.6329 73.4798 52.5335L73.1198 53.4665ZM57.8789 3.5C57.3796 3.52717 57.3797 3.52741 57.3797 3.52782C57.3797 3.52818 57.3797 3.52876 57.3798 3.52948C57.3799 3.53093 57.38 3.53305 57.3801 3.53584C57.3804 3.54141 57.3809 3.54967 57.3815 3.56056C57.3827 3.58234 57.3846 3.61467 57.3871 3.65723C57.3921 3.74234 57.3998 3.86835 57.4103 4.03271C57.4313 4.36142 57.4638 4.84352 57.5097 5.45851C57.6016 6.68843 57.7473 8.45013 57.9628 10.5795C58.3938 14.8372 59.1045 20.5698 60.2231 26.4627C61.341 32.351 62.8702 38.4213 64.9452 43.3442C67.0061 48.2338 69.6631 52.133 73.1198 53.4665L73.4798 52.5335C70.4366 51.3595 67.9159 47.8175 65.8667 42.9558C63.8315 38.1272 62.318 32.1359 61.2056 26.2761C60.094 20.4209 59.3869 14.7188 58.9578 10.4788C58.7432 8.35934 58.5982 6.60647 58.5069 5.38402C58.4613 4.77282 58.429 4.29429 58.4082 3.96892C58.3979 3.80623 58.3903 3.68184 58.3854 3.5983C58.3829 3.55654 58.3811 3.52498 58.3799 3.50396C58.3793 3.49345 58.3789 3.48558 58.3786 3.48038C58.3784 3.47777 58.3783 3.47584 58.3783 3.47458C58.3782 3.47395 58.3782 3.47351 58.3782 3.4732C58.3782 3.47293 58.3782 3.47283 57.8789 3.5Z" fill="#FF7ABF"/>
<path d="M2.71602 57.8383C4.18603 57.7484 5.45064 58.8671 5.54059 60.3371C5.63055 61.8071 4.5118 63.0717 3.04179 63.1617C1.57178 63.2516 0.307177 62.1329 0.217219 60.6629C0.12726 59.1929 1.24601 57.9283 2.71602 57.8383ZM55.1079 74.7642C55.2227 75.0153 55.1122 75.312 54.861 75.4268C54.6099 75.5416 54.3132 75.4311 54.1984 75.1799L55.1079 74.7642ZM2.87891 60.5C2.89849 60.0004 2.89873 60.0004 2.89915 60.0004C2.89952 60.0004 2.90011 60.0004 2.90085 60.0005C2.90234 60.0005 2.90452 60.0006 2.9074 60.0007C2.91315 60.001 2.92166 60.0013 2.93291 60.0018C2.95539 60.0027 2.98878 60.0041 3.03274 60.006C3.12067 60.0099 3.25089 60.0157 3.42078 60.0239C3.76056 60.0403 4.25903 60.0659 4.89514 60.103C6.16732 60.1773 7.9903 60.2974 10.1957 60.4813C14.6054 60.8489 20.5486 61.4715 26.6761 62.4916C32.7994 63.511 39.1274 64.9306 44.2978 66.8984C46.8831 67.8824 49.1949 69.0092 51.0513 70.3023C52.9054 71.5937 54.3336 73.0705 55.1079 74.7642L54.1984 75.1799C53.5247 73.7061 52.249 72.3551 50.4798 71.1228C48.7129 69.8922 46.482 68.7997 43.9421 67.833C38.8617 65.8994 32.6081 64.4929 26.5119 63.478C20.4199 62.4639 14.5055 61.844 10.1126 61.4778C7.91661 61.2948 6.10199 61.1752 4.83689 61.1013C4.20437 61.0644 3.70928 61.039 3.37266 61.0228C3.20436 61.0146 3.07567 61.0088 2.98924 61.0051C2.94602 61.0032 2.91337 61.0018 2.8916 61.0009C2.88072 61.0005 2.87257 61.0001 2.86717 60.9999C2.86448 60.9998 2.86247 60.9997 2.86116 60.9997C2.86051 60.9997 2.86005 60.9996 2.85972 60.9996C2.85943 60.9996 2.85932 60.9996 2.87891 60.5Z" fill="#FF7ABF"/>
<path d="M32.7122 36C32.7122 37.4728 33.9061 38.6667 35.3789 38.6667C36.8517 38.6667 38.0456 37.4728 38.0456 36C38.0456 34.5272 36.8517 33.3333 35.3789 33.3333C33.9061 33.3333 32.7122 34.5272 32.7122 36ZM60.9391 63.3463C61.1304 63.5455 61.4469 63.5519 61.6461 63.3607C61.8453 63.1694 61.8517 62.8529 61.6605 62.6537L60.9391 63.3463ZM35.0182 36.3463L60.9391 63.3463L61.6605 62.6537L35.7396 35.6537L35.0182 36.3463Z" fill="#FF7ABF"/>
</svg>
