<svg width="1332" height="506" viewBox="0 0 1332 506" fill="none" xmlns="http://www.w3.org/2000/svg">
<path d="M909.127 102.521L1007.55 109.465V97.6599L909.127 90.0215V102.521Z" fill="#5949FF"/>
<path d="M1070.67 97.6603V85.8555L1007.55 97.6603V109.465L1070.67 97.6603Z" fill="#463BFF"/>
<path d="M1007.91 97.6601L1070.67 85.8552L971.533 78.2168L909.127 90.0216L1007.91 97.6601Z" fill="#7862FF"/>
<path d="M1012.54 110.16L1110.97 117.104V105.299L1012.54 97.661V110.16Z" fill="#5949FF"/>
<path d="M1174.08 105.3V93.495L1110.96 105.3V117.105L1174.08 105.3Z" fill="#463BFF"/>
<path d="M1111.32 105.3L1174.08 93.4947L1074.95 85.8563L1012.54 97.6612L1111.32 105.3Z" fill="#7862FF"/>
<path d="M1115.96 118.493L1214.38 125.437V113.632L1115.96 105.994V118.493Z" fill="#1C1E2E"/>
<path d="M1277.5 113.631V101.826L1214.38 113.631V125.436L1277.5 113.631Z" fill="#13141C"/>
<path d="M1048.92 131.685L1147.34 138.629V126.824L1048.92 119.186V131.685Z" fill="#1C1E2E"/>
<path d="M1210.46 126.824V115.02L1147.34 126.824V138.629L1210.46 126.824Z" fill="#13141C"/>
<path d="M1147.7 126.824L1210.46 115.019L1111.32 107.381L1048.92 119.186L1147.7 126.824Z" fill="#1F202E"/>
<path d="M356.036 82.3826L258.683 74.0498L195.207 87.2434L292.917 94.1875L356.036 82.3826Z" fill="#23203D"/>
<path d="M293.63 544.508L292.56 94.1879L195.207 87.2439V544.508H293.63Z" fill="#1E1C3D"/>
<path d="M292.559 93.8405L355.678 82.3828L356.034 532.008H292.559V93.8405Z" fill="#1D1B47"/>
<path d="M298.621 108.076L397.044 115.02V103.216L298.621 95.5771V108.076Z" fill="#1F2033"/>
<path d="M460.162 103.216V91.4111L397.043 103.216V115.021L460.162 103.216Z" fill="#131419"/>
<path d="M397.4 103.216L460.163 91.4109L361.027 83.7725L298.621 95.5773L397.4 103.216Z" fill="#191A24"/>
<path d="M229.438 119.881L327.86 126.825V115.02L229.438 107.382V119.881Z" fill="#D43A83"/>
<path d="M390.978 115.021V103.216L327.859 115.021V126.825L390.978 115.021Z" fill="#C32969"/>
<path d="M328.217 115.02L390.979 103.216L291.843 95.5771L229.438 107.382L328.217 115.02Z" fill="#F85EBA"/>
<path d="M332.143 128.212L430.565 135.156V123.351L332.143 115.713V128.212Z" fill="#D43A83"/>
<path d="M493.683 123.352V111.547L430.564 123.352V135.157L493.683 123.352Z" fill="#C32969"/>
<path d="M430.922 123.352L493.684 111.547L394.548 103.908L332.143 115.713L430.922 123.352Z" fill="#F85EBA"/>
<path d="M436.27 136.546L534.692 143.49V131.685L436.27 124.047V136.546Z" fill="#D43A83"/>
<path d="M597.81 131.686V119.881L534.691 131.686V143.491L597.81 131.686Z" fill="#C32969"/>
<path d="M535.051 131.685L597.813 119.881L498.677 112.242L436.271 124.047L535.051 131.685Z" fill="#F85EBA"/>
<path d="M164.539 132.379L262.962 139.323V127.518L164.539 119.88V132.379Z" fill="#5949FF"/>
<path d="M326.08 127.519V115.714L262.961 127.519V139.324L326.08 127.519Z" fill="#463BFF"/>
<path d="M263.318 127.518L326.081 115.714L226.945 108.075L164.539 119.88L263.318 127.518Z" fill="#7862FF"/>
<path d="M267.242 140.713L365.665 147.657V135.852L267.242 128.214V140.713Z" fill="#5949FF"/>
<path d="M428.783 135.853V124.048L365.664 135.853V147.658L428.783 135.853Z" fill="#463BFF"/>
<path d="M366.022 135.852L428.784 124.048L329.648 116.409L267.242 128.214L366.022 135.852Z" fill="#7862FF"/>
<path d="M368.516 148.35L466.938 155.294V143.489L368.516 135.851V148.35Z" fill="#5949FF"/>
<path d="M530.056 143.489V131.685L466.938 143.489V155.294L530.056 143.489Z" fill="#463BFF"/>
<path d="M467.295 143.489L530.057 131.684L430.921 124.046L368.516 135.851L467.295 143.489Z" fill="#7862FF"/>
<path d="M471.93 157.379L570.352 164.323V152.519L471.93 144.88V157.379Z" fill="#5949FF"/>
<path d="M633.471 152.519V140.714L570.352 152.519V164.324L633.471 152.519Z" fill="#463BFF"/>
<path d="M570.709 152.519L633.471 140.714L534.335 133.075L471.93 144.88L570.709 152.519Z" fill="#7862FF"/>
<path d="M447 109.717L545.423 116.661V104.856L447 97.2178V109.717Z" fill="#1B1A34"/>
<path d="M608.541 104.857V93.0518L545.422 104.857V116.661L608.541 104.857Z" fill="#181833"/>
<path d="M545.423 104.856L608.542 93.0515L509.406 85.4131L447 97.2179L545.423 104.856Z" fill="#1D1A2C"/>
<path d="M551.127 118.048L649.55 124.992V113.187L551.127 105.549V118.048Z" fill="#1B1A34"/>
<path d="M712.67 113.188V101.383L649.551 113.188V124.992L712.67 113.188Z" fill="#181833"/>
<path d="M649.55 113.187L712.669 101.383L613.533 93.7441L551.127 105.549L649.55 113.187Z" fill="#1D1A2C"/>
<path d="M742.236 106.69L840.659 113.634V101.829L742.236 94.1906V106.69Z" fill="#5949FF"/>
<path d="M903.777 101.828V90.0234L840.658 101.828V113.633L903.777 101.828Z" fill="#463BFF"/>
<path d="M841.016 101.827L903.778 90.0222L804.642 82.3838L742.236 94.1886L841.016 101.827Z" fill="#7862FF"/>
<path d="M674.482 119.187L772.905 126.131V114.326L674.482 106.688V119.187Z" fill="#5949FF"/>
<path d="M836.023 114.326V102.521L772.904 114.326V126.131L836.023 114.326Z" fill="#463BFF"/>
<path d="M773.262 114.326L836.024 102.521L736.888 94.8828L674.482 106.688L773.262 114.326Z" fill="#7862FF"/>
<path d="M607.441 131.685L705.864 138.629V126.824L607.441 119.186V131.685Z" fill="#5949FF"/>
<path d="M768.982 126.824V115.02L705.863 126.824V138.629L768.982 126.824Z" fill="#463BFF"/>
<path d="M706.221 126.824L768.983 115.019L669.847 107.381L607.441 119.186L706.221 126.824Z" fill="#7862FF"/>
<path d="M539.686 144.882L638.108 151.826V140.021L539.686 132.383V144.882Z" fill="#5949FF"/>
<path d="M701.226 140.019V128.215L638.107 140.019V151.824L701.226 140.019Z" fill="#463BFF"/>
<path d="M638.465 140.019L701.227 128.214L602.091 120.576L539.686 132.381L638.465 140.019Z" fill="#7862FF"/>
<path d="M373.508 203.903L471.931 210.847V199.042L373.508 191.403V203.903Z" fill="#5949FF"/>
<path d="M535.049 199.042V187.237L471.93 199.042V210.847L535.049 199.042Z" fill="#463BFF"/>
<path d="M472.289 199.042L535.051 187.237L435.916 179.599L373.51 191.403L472.289 199.042Z" fill="#7862FF"/>
<path d="M1005.05 99.7447L907.7 91.4119L844.225 104.606L941.934 111.55L1005.05 99.7447Z" fill="#7862FF"/>
<path d="M942.647 561.87L941.578 111.55L844.225 104.606V561.87H942.647Z" fill="#2C278B"/>
<path d="M941.578 111.203L1004.7 99.7449L1005.05 549.37H941.578V111.203Z" fill="#292580"/>
<path d="M776.471 128.907L874.893 135.851V124.047L776.471 116.408V128.907Z" fill="#5949FF"/>
<path d="M938.012 124.048V112.243L874.893 124.048V135.853L938.012 124.048Z" fill="#463BFF"/>
<path d="M875.25 124.048L938.012 112.243L838.876 104.604L776.471 116.409L875.25 124.048Z" fill="#7862FF"/>
<path d="M709.43 141.407L807.852 148.351V136.547L709.43 128.908V141.407Z" fill="#5949FF"/>
<path d="M870.971 136.547V124.742L807.852 136.547V148.352L870.971 136.547Z" fill="#463BFF"/>
<path d="M808.209 136.547L870.971 124.742L771.835 117.104L709.43 128.908L808.209 136.547Z" fill="#7862FF"/>
<path d="M642.391 153.906L740.813 160.85V149.046L642.391 141.407V153.906Z" fill="#5949FF"/>
<path d="M803.93 149.046V137.241L740.811 149.046V160.851L803.93 149.046Z" fill="#463BFF"/>
<path d="M741.168 149.046L803.93 137.241L704.794 129.603L642.389 141.407L741.168 149.046Z" fill="#7862FF"/>
<path d="M403.553 61.6494L364.006 69.2878L407.356 72.4126L443.861 65.8158L403.553 61.6494Z" fill="#E9E9FF"/>
<path d="M394.427 68.2467L388.343 21.0273L379.217 26.2354L384.54 69.2883L394.427 68.2467Z" fill="#A6A7E1"/>
<path d="M379.216 26.2373H372.371L378.455 69.2902H384.539L379.216 26.2373Z" fill="#AFB0E5"/>
<path d="M386.063 68.9415L381.119 31.791L383.781 33.1798L387.964 68.5943L386.063 68.9415Z" fill="#D59FC6"/>
<path d="M381.117 20.3328L388.342 21.0272L379.216 26.2352H372.371L381.117 20.3328Z" fill="#EDEDFF"/>
<path d="M364.005 116.855L357.541 118.939V133.868L364.005 133.521V116.855Z" fill="#DFE0FC"/>
<path d="M381.119 31.7908L388.344 28.666L383.781 33.1796L381.119 31.7908Z" fill="#CFB3DD"/>
<path d="M393.666 67.8997L388.342 28.666L382.334 32.4852L386.06 68.9414L393.666 67.8997Z" fill="#CD7498"/>
<path d="M408.496 13.0427L418.003 14.0843L412.679 64.7757L402.412 66.1645L408.496 13.0427Z" fill="#A6A7E1"/>
<path d="M402.032 12L396.328 65.8162L402.412 66.1634L408.496 13.0416L402.032 12Z" fill="#C7C9F1"/>
<path d="M408.877 22.7637L415.341 23.4581L410.778 64.775L403.934 65.8166L408.877 22.7637Z" fill="#D59FC6"/>
<path d="M407.355 72.4132L443.861 65.8164V119.98L407.355 124.493V72.4132Z" fill="#A6A7E1"/>
<path d="M422.946 82.4836V76.2339L413.82 77.6227L411.158 77.9699V91.5108L413.82 91.858L422.946 90.4692V85.2612L431.692 83.8724V88.386L442.34 86.9972V73.1091L431.692 74.4979V81.442L422.946 82.4836Z" fill="#171817"/>
<path d="M419.145 83.1772V79.0107L414.582 79.7051V84.2188L419.145 83.1772Z" fill="#D5D5D5"/>
<path d="M439.678 74.8436L435.115 75.538V79.7044C435.115 79.9822 438.157 79.8202 439.678 79.7044V74.8436Z" fill="#D5D5D5"/>
<path d="M407.354 124.494V72.4139L364.005 69.2891L363.244 124.494H407.354Z" fill="#BEC0ED"/>
<ellipse cx="428.649" cy="100.539" rx="3.42235" ry="5.55522" fill="#883D69"/>
<path d="M443.86 115.12L462.493 116.162L446.902 119.287L429.41 117.551L443.86 115.12Z" fill="#C8C9F1"/>
<path d="M446.902 118.938L462.493 116.16V130.743L446.902 134.215V118.938Z" fill="#A6A8E1"/>
<path d="M429.41 117.55L446.902 118.939V134.215L429.41 133.174V117.55Z" fill="url(#paint0_linear_29_711)"/>
<path d="M421.045 119.633L435.875 120.675L420.664 124.147L357.541 118.939L363.245 117.897L407.355 121.369L421.045 119.633Z" fill="#DFE0FC"/>
<path d="M411.919 64.7749L416.102 23.458H409.257L405.074 65.8166L411.919 64.7749Z" fill="#CD7498"/>
<path d="M435.874 135.952L420.664 138.729V123.8L435.874 120.675V135.952Z" fill="#A6A8E1"/>
<path d="M420.664 138.729V123.799L357.541 118.938V133.868L420.664 138.729Z" fill="#BFC0ED"/>
<path d="M575.348 166.405L673.77 173.35V161.545L575.348 153.906V166.405Z" fill="#5949FF"/>
<path d="M736.888 161.546V149.741L673.77 161.546V173.351L736.888 161.546Z" fill="#463BFF"/>
<path d="M674.125 161.546L736.887 149.741L637.751 142.103L575.346 153.907L674.125 161.546Z" fill="#7862FF"/>
<path d="M508.305 178.905L606.727 185.85V174.045L508.305 166.406V178.905Z" fill="#5949FF"/>
<path d="M669.846 174.045V162.24L606.727 174.045V185.85L669.846 174.045Z" fill="#463BFF"/>
<path d="M607.084 174.045L669.846 162.24L570.71 154.602L508.305 166.406L607.084 174.045Z" fill="#7862FF"/>
<path d="M1015.4 165.018L1113.82 171.962V160.157L1015.4 152.519V165.018Z" fill="#5949FF"/>
<path d="M1176.94 160.156V148.352L1113.82 160.156V171.961L1176.94 160.156Z" fill="#463BFF"/>
<path d="M1114.18 160.155L1176.94 148.35L1077.8 140.712L1015.4 152.517L1114.18 160.155Z" fill="#7862FF"/>
<path d="M949.066 177.517L1047.49 184.461V172.656L949.066 165.018V177.517Z" fill="#5949FF"/>
<path d="M1110.61 172.656V160.852L1047.49 172.656V184.461L1110.61 172.656Z" fill="#463BFF"/>
<path d="M1047.85 172.656L1110.61 160.851L1011.47 153.213L949.066 165.018L1047.85 172.656Z" fill="#7862FF"/>
<path d="M678.762 174.046L777.184 180.99V169.185L678.762 161.547V174.046Z" fill="#5949FF"/>
<path d="M840.303 169.186V157.381L777.184 169.186V180.991L840.303 169.186Z" fill="#463BFF"/>
<path d="M777.541 169.185L840.303 157.381L741.167 149.742L678.762 161.547L777.541 169.185Z" fill="#7862FF"/>
<path d="M781.465 182.38L879.888 189.324V177.519L781.465 169.881V182.38Z" fill="#5949FF"/>
<path d="M943.006 177.519V165.714L879.887 177.519V189.324L943.006 177.519Z" fill="#463BFF"/>
<path d="M880.244 177.517L943.007 165.713L843.871 158.074L781.465 169.879L880.244 177.517Z" fill="#7862FF"/>
<path d="M882.74 190.71L981.163 197.654V185.849L882.74 178.211V190.71Z" fill="#5949FF"/>
<path d="M1044.28 185.85V174.045L981.162 185.85V197.655L1044.28 185.85Z" fill="#463BFF"/>
<path d="M981.52 185.85L1044.28 174.045L945.146 166.406L882.74 178.211L981.52 185.85Z" fill="#7862FF"/>
<path d="M611.721 186.543L710.143 193.487V181.682L611.721 174.044V186.543Z" fill="#5949FF"/>
<path d="M773.262 181.683V169.878L710.143 181.683V193.488L773.262 181.683Z" fill="#463BFF"/>
<path d="M710.5 181.683L773.262 169.878L674.126 162.239L611.721 174.044L710.5 181.683Z" fill="#7862FF"/>
<path d="M25.4609 144.532L88.5799 133.074L88.9365 377.504H25.4609V144.532Z" fill="#463BFF"/>
<path d="M30.4531 158.073L128.876 165.017V153.213L30.4531 145.574V158.073Z" fill="#5949FF"/>
<path d="M191.994 153.213V141.408L128.875 153.213V165.018L191.994 153.213Z" fill="#463BFF"/>
<path d="M129.232 153.213L191.995 141.408L92.8589 133.77L30.4531 145.574L129.232 153.213Z" fill="#7862FF"/>
<path d="M544.676 199.045L643.099 205.989V194.184L544.676 186.546V199.045Z" fill="#D43A83"/>
<path d="M706.217 194.185V182.38L643.098 194.185V205.99L706.217 194.185Z" fill="#C32969"/>
<path d="M643.457 194.184L706.219 182.38L607.083 174.741L544.678 186.546L643.457 194.184Z" fill="#F85EBA"/>
<path d="M477.637 212.237L576.059 219.181V207.376L477.637 199.737V212.237Z" fill="#D43A83"/>
<path d="M639.178 207.376V195.571L576.059 207.376V219.181L639.178 207.376Z" fill="#C32969"/>
<path d="M576.416 207.376L639.178 195.571L540.042 187.933L477.637 199.737L576.416 207.376Z" fill="#F85EBA"/>
<path d="M201.625 153.214L300.048 160.158V148.353L201.625 140.715V153.214Z" fill="#5949FF"/>
<path d="M363.168 148.353V136.548L300.049 148.353V160.158L363.168 148.353Z" fill="#463BFF"/>
<path d="M300.404 148.351L363.167 136.547L264.031 128.908L201.625 140.713L300.404 148.351Z" fill="#7862FF"/>
<path d="M136.723 166.405L235.145 173.349V161.544L136.723 153.905V166.405Z" fill="#5949FF"/>
<path d="M298.263 161.544V149.739L235.145 161.544V173.349L298.263 161.544Z" fill="#463BFF"/>
<path d="M235.502 161.544L298.264 149.739L199.128 142.101L136.723 153.905L235.502 161.544Z" fill="#7862FF"/>
<path d="M385.264 184.304L483.686 191.248V179.443L385.264 171.805V184.304Z" fill="#D43A83"/>
<path d="M546.806 179.444V167.639L483.688 179.444V191.248L546.806 179.444Z" fill="#C32969"/>
<path d="M484.043 179.443L546.805 167.638L447.669 160L385.264 171.805L484.043 179.443Z" fill="#F85EBA"/>
<path d="M66.1152 178.905L164.538 185.85V174.045L66.1152 166.406V178.905Z" fill="#D43A83"/>
<path d="M227.656 174.045V162.24L164.537 174.045V185.85L227.656 174.045Z" fill="#C32969"/>
<path d="M164.895 174.045L227.657 162.24L128.521 154.602L66.1152 166.406L164.895 174.045Z" fill="#F85EBA"/>
<path d="M533.922 24.6111L556.83 81.5889C559.924 89.2827 554.329 97.6842 546.037 97.7963L502.619 98.3834C494.764 98.4897 489.283 90.6324 492.095 83.2971L514.532 24.7683C517.92 15.9287 530.39 15.8276 533.922 24.6111Z" fill="#111E15"/>
<path d="M560.37 23.3579L567.145 25.0939L558.23 24.0523L552.168 23.0107L560.37 23.3579Z" fill="#EDEDFF"/>
<ellipse cx="287.927" cy="137.587" rx="24.9623" ry="3.12481" fill="#5042FC"/>
<path d="M288.465 104.087L303.075 120.821C309.718 128.431 304.357 140.327 294.256 140.39L269.164 140.546C258.533 140.612 252.678 128.221 259.48 120.05L272.613 104.273C276.714 99.3465 284.249 99.2578 288.465 104.087Z" fill="url(#paint1_linear_29_711)"/>
<path d="M161.329 175.086L63.9756 166.753L0.5 179.947L98.2096 186.891L161.329 175.086Z" fill="#F85EBA"/>
<path d="M98.9228 637.209L97.853 186.889L0.5 179.945V637.209H98.9228Z" fill="#D73D87"/>
<path d="M97.8516 186.544L160.971 175.086L161.327 624.711H97.8516V186.544Z" fill="#C32969"/>
<path d="M469.436 199.737L372.083 191.404L308.607 204.598L406.317 211.542L469.436 199.737Z" fill="#7862FF"/>
<path d="M407.03 661.862L405.96 211.542L308.607 204.598V661.862H407.03Z" fill="#4D41DB"/>
<path d="M405.961 211.195L469.08 199.737L469.437 649.363H405.961V211.195Z" fill="#382FBC"/>
<ellipse cx="868.119" cy="111.895" rx="23.8925" ry="3.12481" fill="#3B32B0"/>
<ellipse cx="936.588" cy="100.785" rx="28.1717" ry="3.81921" fill="#2B2771"/>
<ellipse cx="117.549" cy="141.786" rx="28.1717" ry="3.47201" fill="#4D40F3"/>
<path d="M114.25 71.6111L137.158 128.589C140.252 136.283 134.657 144.684 126.365 144.796L82.9475 145.383C75.0923 145.49 69.611 137.632 72.423 130.297L94.8599 71.7683C98.2485 62.9287 110.718 62.8276 114.25 71.6111Z" fill="url(#paint2_linear_29_711)"/>
<ellipse cx="28.1715" cy="3.47204" rx="28.1715" ry="3.47204" transform="matrix(0.99987 0.0161214 -0.0170062 0.999855 786.959 121.615)" fill="#5043FF"/>
<path d="M823.688 99.6478L826.668 74.7964L802.656 75.4867L772.32 97.9997L798.48 115.919L823.688 99.6478Z" fill="#FF8A06"/>
<path d="M826.67 74.7983L801.248 56.5849L801.995 76.3701L826.67 74.7983Z" fill="#FFC810"/>
<path d="M802.249 76.1543L775.303 73.1494L801.248 56.584L802.249 76.1543Z" fill="#FFE417"/>
<path d="M772.319 98.0001L775.299 73.1487L802.355 76.0272L816.994 102.991L784.553 101.675L772.319 98.0001Z" fill="#FFA60A"/>
<path d="M802.356 76.0269L784.581 101.329L775.301 73.1484L802.356 76.0269Z" fill="#FFBC0E"/>
<path d="M816.878 102.999L826.669 74.796L802.357 76.0265L816.878 102.999Z" fill="#FF9A08"/>
<g opacity="0.3">
<ellipse cx="28.1714" cy="3.47205" rx="28.1714" ry="3.47205" transform="matrix(0.999787 0.0206175 -0.0217488 0.999763 1104.99 90.3143)" fill="#5043FF"/>
<path d="M1141.83 68.5114L1144.92 43.6737L1120.91 44.256L1090.47 66.6324L1116.54 84.6688L1141.83 68.5114Z" fill="#FF8A06"/>
<path d="M1144.93 43.6751L1119.59 25.3475L1120.24 45.1359L1144.93 43.6751Z" fill="#FFC810"/>
<path d="M1120.5 44.923L1093.57 41.797L1119.59 25.3484L1120.5 44.923Z" fill="#FFE417"/>
<path d="M1090.47 66.6339L1093.57 41.7962L1120.61 44.7962L1135.12 71.8257L1102.68 70.3642L1090.47 66.6339Z" fill="#FFA60A"/>
<path d="M1120.61 44.7949L1102.71 70.0168L1093.56 41.7948L1120.61 44.7949Z" fill="#FFBC0E"/>
<path d="M1135 71.8341L1144.92 43.6757L1120.61 44.7968L1135 71.8341Z" fill="#FF9A08"/>
</g>
<path d="M869.015 77.6989L883.626 94.4337C890.269 102.043 884.908 113.939 874.807 114.002L849.715 114.158C839.084 114.224 833.229 101.833 840.03 93.6626L853.164 77.8853C857.265 72.9588 864.8 72.8701 869.015 77.6989Z" fill="url(#paint3_linear_29_711)"/>
<path d="M934 30.6111L956.908 87.5889C960.002 95.2827 954.407 103.684 946.115 103.796L902.698 104.383C894.842 104.49 889.361 96.6324 892.173 89.2971L914.61 30.7683C917.999 21.9287 930.468 21.8276 934 30.6111Z" fill="#097B0D"/>
<path d="M238.709 174.738L337.132 181.683V169.878L238.709 162.239V174.738Z" fill="#1F2033"/>
<path d="M400.25 169.878V158.073L337.131 169.878V181.683L400.25 169.878Z" fill="#131419"/>
<path d="M337.488 169.878L400.251 158.073L301.115 150.435L238.709 162.239L337.488 169.878Z" fill="#191A24"/>
<ellipse cx="401.389" cy="199.514" rx="28.1717" ry="3.47201" fill="#5043FF"/>
<path d="M427.278 180.085L429.835 155.189L405.838 156.267L375.889 179.266L402.35 196.76L427.278 180.085Z" fill="#FF8A06"/>
<path d="M429.834 155.191L404.105 137.39L405.189 157.16L429.834 155.191Z" fill="#FFC810"/>
<path d="M405.439 156.941L378.445 154.371L404.105 137.389L405.439 156.941Z" fill="#FFE417"/>
<path d="M375.888 179.266L378.445 154.37L405.546 156.812L420.641 183.536L388.183 182.744L375.888 179.266Z" fill="#FFA60A"/>
<path d="M405.546 156.811L388.204 182.396L378.445 154.369L405.546 156.811Z" fill="#FFBC0E"/>
<path d="M420.524 183.547L429.834 155.191L405.546 156.813L420.524 183.547Z" fill="#FF9A08"/>
<path d="M410.596 225.43L509.018 232.374V220.569L410.596 212.931V225.43Z" fill="#5949FF"/>
<path d="M572.137 220.569V208.765L509.018 220.569V232.374L572.137 220.569Z" fill="#463BFF"/>
<path d="M509.375 220.569L572.137 208.764L473.001 201.126L410.596 212.931L509.375 220.569Z" fill="#7862FF"/>
<path d="M1149.12 182.376L1051.77 174.043L988.293 187.237L1086 194.181L1149.12 182.376Z" fill="#313150"/>
<path d="M1086.72 644.499L1085.65 194.179L988.293 187.235V644.499H1086.72Z" fill="#1D1E31"/>
<path d="M1085.64 193.834L1148.76 182.376L1149.12 632.001H1085.64V193.834Z" fill="#151521"/>
<ellipse cx="1075.66" cy="182.03" rx="28.1717" ry="3.81921" fill="#1A1B2B"/>
<path d="M1072.41 111.452L1095.54 171.014C1098.52 178.686 1092.93 186.976 1084.7 187.091L1040.87 187.705C1033.07 187.814 1027.58 180.056 1030.29 172.737L1052.93 111.605C1056.26 102.616 1068.94 102.516 1072.41 111.452Z" fill="url(#paint4_linear_29_711)"/>
<path d="M581.051 219.874L679.474 226.818V215.013L581.051 207.375V219.874Z" fill="#5949FF"/>
<path d="M742.594 215.014V203.209L679.475 215.014V226.819L742.594 215.014Z" fill="#463BFF"/>
<path d="M679.83 215.014L742.592 203.209L643.457 195.57L581.051 207.375L679.83 215.014Z" fill="#7862FF"/>
<path d="M683.754 228.209L782.177 235.153V223.348L683.754 215.71V228.209Z" fill="#5949FF"/>
<path d="M845.295 223.349V211.544L782.176 223.349V235.154L845.295 223.349Z" fill="#463BFF"/>
<path d="M782.533 223.349L845.296 211.544L746.16 203.905L683.754 215.71L782.533 223.349Z" fill="#7862FF"/>
<path d="M675.551 217.099L578.198 208.767L514.723 221.96L612.076 228.904L675.551 217.099Z" fill="#313150"/>
<path d="M613.145 679.225L612.076 228.905L514.723 221.961V679.225H613.145Z" fill="#1D1E31"/>
<path d="M612.076 228.557L675.195 217.099L675.552 666.725H612.076V228.557Z" fill="#151521"/>
<path d="M617.426 240.707L715.849 247.651V235.846L617.426 228.208V240.707Z" fill="#1F2033"/>
<path d="M778.967 235.847V224.042L715.848 235.847V247.652L778.967 235.847Z" fill="#131419"/>
<path d="M716.205 235.847L778.967 224.042L679.832 216.403L617.426 228.208L716.205 235.847Z" fill="#191A24"/>
<path d="M947.998 219.875L850.645 211.542L787.17 224.736L884.879 231.68L947.998 219.875Z" fill="#7862FF"/>
<path d="M885.591 682L884.521 231.68L787.168 224.736V682H885.591Z" fill="#3B32D5"/>
<path d="M884.52 231.334L947.638 219.876L947.995 669.501H884.52V231.334Z" fill="#382FBC"/>
<path d="M1267.83 141.333L1170.48 133L1107 146.194L1204.71 153.138L1267.83 141.333Z" fill="#7862FF"/>
<path d="M1205.42 603.458L1204.35 153.138L1107 146.194V603.458H1205.42Z" fill="#3B32D5"/>
<path d="M1204.35 152.792L1267.47 141.334L1267.83 590.959H1204.35V152.792Z" fill="#382FBC"/>
<path d="M1268 138.458L1331.12 127L1331.48 576.625H1268V138.458Z" fill="#382FBC"/>
<path d="M719.414 249.039L817.837 255.983V244.178L719.414 236.54V249.039Z" fill="#5949FF"/>
<path d="M880.955 244.179V232.374L817.836 244.179V255.984L880.955 244.179Z" fill="#463BFF"/>
<path d="M818.193 244.179L880.956 232.374L781.82 224.735L719.414 236.54L818.193 244.179Z" fill="#7862FF"/>
<path d="M1187 137.415L1271.08 143.248V133.332L1187 126.916V137.415Z" fill="#5949FF"/>
<path d="M1325 133.332V123.416L1271.08 133.332V143.248L1325 133.332Z" fill="#463BFF"/>
<path d="M1271.38 133.332L1325 123.416L1240.31 117L1187 126.916L1271.38 133.332Z" fill="#7862FF"/>
<defs>
<linearGradient id="paint0_linear_29_711" x1="429.03" y1="122.063" x2="441.507" y2="128.494" gradientUnits="userSpaceOnUse">
<stop stop-color="#A6A7E1"/>
<stop offset="1" stop-color="#B5B6E8"/>
</linearGradient>
<linearGradient id="paint1_linear_29_711" x1="281.149" y1="104.081" x2="281.149" y2="140.713" gradientUnits="userSpaceOnUse">
<stop stop-color="#01E003"/>
<stop offset="1" stop-color="#00BC01"/>
</linearGradient>
<linearGradient id="paint2_linear_29_711" x1="105.068" y1="66.7905" x2="105.068" y2="145.605" gradientUnits="userSpaceOnUse">
<stop stop-color="#01E003"/>
<stop offset="1" stop-color="#00BC01"/>
</linearGradient>
<linearGradient id="paint3_linear_29_711" x1="861.7" y1="77.6935" x2="861.7" y2="114.326" gradientUnits="userSpaceOnUse">
<stop stop-color="#01E003"/>
<stop offset="1" stop-color="#00BC01"/>
</linearGradient>
<linearGradient id="paint4_linear_29_711" x1="1063.18" y1="106.342" x2="1063.18" y2="187.932" gradientUnits="userSpaceOnUse">
<stop stop-color="#01E003"/>
<stop offset="1" stop-color="#00BC01"/>
</linearGradient>
</defs>
</svg>
