<svg width="535" height="486" viewBox="0 0 535 486" fill="none" xmlns="http://www.w3.org/2000/svg">
<path d="M433.099 151.317C430.474 180.176 422.996 210.605 411.269 239.965C396.766 276.273 376.952 308.253 353.968 332.447L352.692 331.337C375.565 307.259 395.289 275.421 409.731 239.263C422.783 206.588 430.547 172.585 432.192 140.944L433.822 141.217C433.649 144.558 433.408 147.925 433.099 151.317Z" fill="#F2F2F2"/>
<path d="M443.552 318.92C411.269 370.169 372.103 406.787 333.268 422.028L332.482 420.591C371.049 405.456 409.985 369.025 442.121 318.01L443.552 318.92Z" fill="#F2F2F2"/>
<path d="M432.315 187.247C429.69 216.105 422.212 246.534 410.485 275.895C395.982 312.202 376.168 344.182 353.184 368.376L351.908 367.267C374.781 343.189 394.505 311.35 408.947 275.192C421.999 242.517 429.762 208.514 431.408 176.874L433.038 177.146C432.865 180.488 432.624 183.855 432.315 187.247Z" fill="#F2F2F2"/>
<path d="M69.8995 261.335H48.7181C48.2656 261.335 47.8187 261.234 47.411 261.038C47.0033 260.842 46.6454 260.557 46.364 260.203C46.0861 259.858 45.89 259.455 45.7905 259.024C45.691 258.593 45.6906 258.145 45.7894 257.714C47.8067 248.832 47.68 239.598 45.4197 230.774C45.2767 230.193 45.3113 229.583 45.5189 229.022C45.7266 228.461 46.0978 227.974 46.5848 227.625C57.4764 219.809 66.0538 220.036 72.079 228.301C72.3506 228.677 72.5311 229.112 72.6062 229.57C74.2161 239.227 74.3052 249.077 72.8702 258.762C72.7705 259.476 72.4146 260.131 71.8684 260.604C71.3222 261.077 70.6228 261.337 69.8995 261.335Z" fill="#FA9218"/>
<path d="M63.333 240.169H56.0466C55.6436 240.169 55.2572 240.009 54.9723 239.725C54.6874 239.44 54.5273 239.055 54.5273 238.653C54.5273 238.251 54.6874 237.865 54.9723 237.581C55.2572 237.296 55.6436 237.137 56.0466 237.137H63.333C63.7354 237.137 64.121 237.298 64.4052 237.582C64.6894 237.866 64.8491 238.251 64.8491 238.653C64.8491 239.054 64.6894 239.439 64.4052 239.723C64.121 240.008 63.7354 240.168 63.333 240.169Z" fill="white"/>
<path d="M63.333 245.485H56.0466C55.6436 245.485 55.2572 245.325 54.9723 245.041C54.6874 244.757 54.5273 244.371 54.5273 243.969C54.5273 243.567 54.6874 243.181 54.9723 242.897C55.2572 242.613 55.6436 242.453 56.0466 242.453H63.333C63.7354 242.454 64.121 242.614 64.4052 242.898C64.6894 243.182 64.8491 243.568 64.8491 243.969C64.8491 244.371 64.6894 244.756 64.4052 245.04C64.121 245.324 63.7354 245.484 63.333 245.485Z" fill="white"/>
<path d="M63.333 250.802H56.0466C55.6436 250.802 55.2572 250.642 54.9723 250.358C54.6874 250.073 54.5273 249.688 54.5273 249.286C54.5273 248.884 54.6874 248.498 54.9723 248.214C55.2572 247.929 55.6436 247.77 56.0466 247.77H63.333C63.7354 247.771 64.121 247.931 64.4052 248.215C64.6894 248.499 64.8491 248.884 64.8491 249.286C64.8491 249.687 64.6894 250.072 64.4052 250.357C64.121 250.641 63.7354 250.801 63.333 250.802Z" fill="white"/>
<path d="M454.85 355.704H433.668C433.216 355.705 432.769 355.604 432.361 355.408C431.954 355.212 431.596 354.927 431.314 354.573C431.036 354.228 430.84 353.825 430.741 353.394C430.641 352.963 430.641 352.515 430.74 352.084C432.757 343.201 432.63 333.968 430.37 325.144C430.227 324.563 430.261 323.953 430.469 323.392C430.677 322.83 431.048 322.344 431.535 321.995C442.427 314.179 451.004 314.406 457.029 322.671C457.301 323.047 457.481 323.482 457.556 323.94C459.166 333.597 459.255 343.446 457.82 353.131C457.721 353.846 457.365 354.501 456.819 354.974C456.272 355.447 455.573 355.706 454.85 355.704Z" fill="#FA9218"/>
<path d="M448.283 334.538H440.996C440.594 334.538 440.209 334.377 439.924 334.093C439.64 333.809 439.48 333.424 439.48 333.022C439.48 332.621 439.64 332.236 439.924 331.952C440.209 331.667 440.594 331.507 440.996 331.506H448.283C448.686 331.506 449.072 331.666 449.357 331.951C449.642 332.235 449.802 332.62 449.802 333.022C449.802 333.425 449.642 333.81 449.357 334.094C449.072 334.379 448.686 334.538 448.283 334.538Z" fill="white"/>
<path d="M448.283 339.855H440.996C440.594 339.854 440.209 339.694 439.924 339.41C439.64 339.126 439.48 338.74 439.48 338.339C439.48 337.937 439.64 337.552 439.924 337.268C440.209 336.984 440.594 336.824 440.996 336.823H448.283C448.686 336.823 449.072 336.983 449.357 337.267C449.642 337.551 449.802 337.937 449.802 338.339C449.802 338.741 449.642 339.127 449.357 339.411C449.072 339.695 448.686 339.855 448.283 339.855Z" fill="white"/>
<path d="M448.283 345.172H440.996C440.594 345.171 440.209 345.011 439.924 344.726C439.64 344.442 439.48 344.057 439.48 343.656C439.48 343.254 439.64 342.869 439.924 342.585C440.209 342.301 440.594 342.14 440.996 342.14H448.283C448.686 342.14 449.072 342.299 449.357 342.584C449.642 342.868 449.802 343.254 449.802 343.656C449.802 344.058 449.642 344.443 449.357 344.728C449.072 345.012 448.686 345.172 448.283 345.172Z" fill="white"/>
<path d="M162.592 436.549L161.271 418.214C152.617 413.898 143.038 411.754 133.366 411.97C146.974 422.466 145.884 443.443 155.308 457.799C158.281 462.254 162.222 465.984 166.836 468.713C171.451 471.442 176.622 473.1 181.966 473.564L193.291 480.065C194.587 471.521 194.011 462.799 191.602 454.498C189.194 446.198 185.012 438.517 179.342 431.986C176.125 428.353 172.463 425.138 168.441 422.419C165.966 429.511 162.592 436.549 162.592 436.549Z" fill="#F2F2F2"/>
<path d="M402.13 439.207L403.451 420.873C412.105 416.556 421.684 414.413 431.356 414.628C417.748 425.124 418.838 446.101 409.414 460.457C406.441 464.912 402.501 468.643 397.886 471.372C393.271 474.101 388.1 475.758 382.756 476.222L371.431 482.723C370.136 474.18 370.712 465.457 373.12 457.157C375.528 448.856 379.711 441.176 385.38 434.644C388.597 431.011 392.259 427.797 396.281 425.077C398.756 432.169 402.13 439.207 402.13 439.207Z" fill="#F2F2F2"/>
<path d="M276.367 232.302C283.356 232.302 289.021 226.649 289.021 219.675C289.021 212.701 283.356 207.048 276.367 207.048C269.378 207.048 263.713 212.701 263.713 219.675C263.713 226.649 269.378 232.302 276.367 232.302Z" fill="#08C1F9"/>
<path d="M282.863 214.413C282.672 214.231 282.419 214.13 282.156 214.13C281.893 214.13 281.64 214.231 281.45 214.413C278.765 216.55 276.353 219.008 274.269 221.732C273.757 220.744 273.246 219.756 272.734 218.768C272.144 217.628 270.419 218.635 271.009 219.774C271.757 221.219 272.506 222.664 273.254 224.109C273.344 224.256 273.471 224.378 273.622 224.463C273.773 224.547 273.943 224.592 274.117 224.592C274.29 224.592 274.46 224.547 274.611 224.463C274.762 224.378 274.889 224.256 274.979 224.109C277.2 220.988 279.854 218.198 282.863 215.822C283.048 215.635 283.153 215.381 283.153 215.118C283.153 214.854 283.048 214.6 282.863 214.413Z" fill="white"/>
<path d="M219.746 255.481L200.664 225.578L222.761 213.769L228.56 236.584L269.423 258.618C271.036 258.038 272.784 257.94 274.452 258.334C276.121 258.729 277.638 259.599 278.819 260.839C280 262.079 280.794 263.636 281.105 265.318C281.415 267.001 281.228 268.737 280.566 270.316C279.904 271.894 278.797 273.246 277.378 274.207C275.96 275.168 274.292 275.697 272.577 275.728C270.863 275.76 269.177 275.293 267.724 274.384C266.271 273.476 265.114 272.165 264.395 270.612L219.746 255.481Z" fill="#A0616A"/>
<path d="M186.723 189.712C180.727 198.496 202.034 230.426 202.034 230.426C203.072 228.193 212.995 253.264 214.657 251.783C219.38 247.574 226.774 235.849 230.884 235.327C233.234 235.028 225.433 218.394 225.433 218.394C225.433 218.394 221.867 208.572 217.029 196.025C215.727 192.453 213.54 189.267 210.673 186.765C207.805 184.262 204.35 182.525 200.628 181.713C200.628 181.713 192.719 180.928 186.723 189.712Z" fill="#3F3D56"/>
<path d="M187.016 475.902L196.078 475.901L200.389 441.021L187.014 441.022L187.016 475.902Z" fill="#A0616A"/>
<path d="M184.704 472.949L187.255 472.949L197.214 468.908L202.551 472.949H202.552C205.568 472.949 208.461 474.144 210.594 476.273C212.727 478.401 213.926 481.288 213.926 484.298V484.667L184.705 484.668L184.704 472.949Z" fill="#2F2E41"/>
<path d="M229.118 475.902L238.18 475.901L242.492 441.021L229.116 441.022L229.118 475.902Z" fill="#A0616A"/>
<path d="M226.807 472.949L229.357 472.949L239.316 468.908L244.654 472.949H244.655C247.671 472.949 250.564 474.144 252.697 476.273C254.83 478.401 256.028 481.288 256.028 484.298V484.667L226.807 484.668L226.807 472.949Z" fill="#2F2E41"/>
<path d="M233.041 285.209L174.095 286.679C162.9 292.747 162.73 305.879 166.398 321.471C166.398 321.471 165.159 330.739 167.636 333.21C170.113 335.681 171.351 335.681 170.113 340.006C168.874 344.331 175.417 351.395 174.622 352.188C173.828 352.981 171.97 357.305 171.97 357.305L178.162 392.522C178.162 392.522 182.496 453.686 183.734 454.922C184.972 456.158 186.211 454.922 184.972 458.011C183.734 461.1 182.496 459.865 183.734 461.1C184.831 462.281 185.864 463.518 186.83 464.807H201.799C201.799 464.807 202.928 458.629 202.928 458.011C202.928 457.393 204.166 453.686 204.166 453.069C204.166 452.451 203.072 451.359 203.072 451.359C202.694 450.103 202.438 448.813 202.309 447.508C202.309 446.273 198.594 398.7 198.594 398.7L206.024 336.917L223.979 397.464C223.979 397.464 223.979 450.597 225.217 451.833C226.456 453.069 226.456 452.451 225.837 454.922C225.217 457.393 222.741 456.776 224.598 458.629C226.456 460.483 227.075 457.393 226.456 460.483L225.837 463.572L244.411 463.837C244.411 463.837 246.888 458.629 245.65 456.776C244.411 454.922 244.486 455.428 245.996 452.395C247.507 449.362 248.126 448.744 247.507 448.126C246.888 447.508 246.888 444.222 246.888 444.222L243.792 385.108C243.792 385.108 243.173 322.707 243.173 320.854C243.126 319.9 243.302 318.948 243.687 318.074V315.558L241.316 306.644L233.041 285.209Z" fill="#2F2E41"/>
<path d="M197.631 162.902C207.746 162.902 215.946 154.72 215.946 144.626C215.946 134.533 207.746 126.351 197.631 126.351C187.516 126.351 179.316 134.533 179.316 144.626C179.316 154.72 187.516 162.902 197.631 162.902Z" fill="#A0616A"/>
<path d="M206.789 174.981C210.734 177.322 213.095 181.623 214.45 185.999C216.958 194.101 218.468 202.478 218.946 210.945L220.377 236.293L238.101 290.266C222.74 303.236 165.001 293.213 165.001 293.213C165.001 293.213 163.229 292.624 165.001 290.855C166.773 289.087 168.499 290.654 166.727 288.885C164.954 287.116 166.176 289.087 166.767 287.318C167.358 285.549 166.767 286.729 166.176 286.139C165.585 285.549 170.75 280.244 170.75 280.244L166.023 249.263L160.115 186.772C167.205 177.929 181.463 172.716 181.463 172.716L185.147 166.099L203.568 167.569L206.789 174.981Z" fill="#3F3D56"/>
<path d="M212.728 134.917C214.152 135.976 215.206 137.455 215.744 139.144C215.95 136.383 215.963 133.612 215.783 130.85C215.567 128.91 214.198 128.473 212.612 127.967C211.18 127.51 209.561 126.994 209.125 125.11C203.368 119.521 193.346 119.803 186.487 121.752C182.713 122.825 180.541 124.203 180.347 125.011L180.307 125.177L180.154 125.254C177.244 126.705 176.678 131.288 176.716 134.878C176.786 141.64 179.126 149.321 180.445 149.945C180.514 149.978 180.532 149.965 180.562 149.94C182.547 148.357 184.969 150.06 186.033 150.986C186.661 146.783 188.682 142.911 191.774 139.989C194.865 137.066 198.849 135.262 203.089 134.864C204.474 134.73 205.847 134.5 207.2 134.176C207.886 133.999 208.591 133.907 209.3 133.901C210.52 133.883 211.716 134.237 212.728 134.917Z" fill="#2F2E41"/>
<path d="M326.426 299.771L361.657 264.071L370.939 235.519L356.002 229.49C348.602 236.938 340.985 259.738 340.985 259.738L316.939 291.943C316.747 292.014 316.555 292.089 316.367 292.178C315.26 292.7 314.306 293.497 313.598 294.494C312.89 295.491 312.452 296.653 312.326 297.868C312.2 299.084 312.39 300.311 312.878 301.431C313.366 302.552 314.135 303.527 315.112 304.264C316.088 305.002 317.238 305.475 318.452 305.639C319.665 305.802 320.9 305.651 322.037 305.199C323.175 304.747 324.176 304.011 324.945 303.06C325.714 302.109 326.224 300.976 326.426 299.771Z" fill="#FFB8B8"/>
<path d="M351.927 232.756L370.817 238.209L370.887 238.196C377.831 236.85 383.323 225.336 386.708 215.913C387.822 212.805 387.711 209.392 386.399 206.362C385.086 203.332 382.67 200.913 379.639 199.593C377.396 198.634 374.929 198.321 372.517 198.688C370.104 199.055 367.843 200.088 365.989 201.67L356.57 209.762L351.927 232.756Z" fill="#08C1F9"/>
<path d="M335.765 474.841L325.606 474.84L320.773 435.74L335.767 435.741L335.765 474.841Z" fill="#FFB8B8"/>
<path d="M338.357 471.531L335.498 471.531L324.334 467.001L318.35 471.531H318.349C314.968 471.531 311.725 472.871 309.334 475.257C306.943 477.643 305.6 480.879 305.6 484.253V484.666L338.356 484.668L338.357 471.531Z" fill="#2F2E41"/>
<path d="M380.842 474.841L370.683 474.84L365.851 435.74L380.844 435.741L380.842 474.841Z" fill="#FFB8B8"/>
<path d="M383.434 471.531L380.575 471.531L369.411 467.001L363.427 471.531H363.427C360.045 471.531 356.802 472.871 354.411 475.257C352.02 477.643 350.677 480.879 350.677 484.253V484.666L383.434 484.668L383.434 471.531Z" fill="#2F2E41"/>
<path d="M396.333 306.421C396.333 306.421 397.519 320.625 394.553 334.237C391.588 347.85 391.588 386.188 391.588 386.188L385.063 460.894L365.49 459.118L360.152 334.238L341.172 376.259L342.952 382.177L340.582 383.657C340.582 383.657 342.359 395.198 341.172 395.198C339.986 395.198 337.021 396.974 337.021 396.974L339.393 457.934L319.227 457.342L312.109 371.524L319.82 322.401L320.413 312.931L323.082 313.04L324.441 309.084L326.937 302.278L396.333 306.421Z" fill="#2F2E41"/>
<path d="M397.359 309.404L397.464 309.256C403.11 301.369 394.619 282.416 393.338 279.669L398.732 277.922L397.518 267.62L396.942 263.026L401.065 258.913L401.076 258.81L403.449 238.095L406.898 224.337C408.198 219.136 408.087 213.683 406.577 208.539C405.067 203.394 402.213 198.743 398.306 195.064L390.333 187.562L380.642 173.254H365.016L359.658 183.353C354.463 184.551 349.854 187.53 346.634 191.77C343.413 196.01 341.786 201.243 342.035 206.558L343.249 233.045L338.495 266.023L338.492 271.991L333.142 277.924L334.311 283.753L330.239 285.494L328.441 293.865C327.697 294.845 322.786 301.379 322.786 303.165C322.786 303.434 322.985 303.693 323.41 303.98C326.757 306.242 345.255 310.852 353.442 307.583C362.163 304.104 396.829 309.323 397.178 309.376L397.359 309.404Z" fill="#08C1F9"/>
<path d="M370.81 168.635C382.24 168.635 391.506 159.39 391.506 147.984C391.506 136.579 382.24 127.333 370.81 127.333C359.38 127.333 350.114 136.579 350.114 147.984C350.114 159.39 359.38 168.635 370.81 168.635Z" fill="#FFB8B8"/>
<path d="M368.827 168.97C372.033 168.937 375.229 168.631 378.382 168.056C381.503 167.338 388.39 162.024 390.267 158.885C391.662 156.553 392.499 152.945 392.955 150.329C393.572 146.868 393.453 143.315 392.607 139.902C391.76 136.49 390.204 133.292 388.041 130.517C387.207 129.355 386.073 128.439 384.76 127.866C384.644 127.824 384.525 127.788 384.404 127.757C382.501 127.309 380.776 126.304 379.449 124.871C379.192 124.581 378.913 124.309 378.617 124.059C377.129 122.87 375.38 122.05 373.513 121.664C370.497 120.942 366.182 121.847 360.69 124.359C357.931 125.62 354.868 125.268 352.507 124.821C352.375 124.799 352.239 124.812 352.113 124.858C351.988 124.905 351.876 124.984 351.79 125.087C350.816 126.048 349.513 126.605 348.143 126.647C347.305 126.706 346.455 127.888 345.43 129.427C345.197 129.776 344.926 130.184 344.729 130.433L344.69 129.966L344.228 130.5C343.504 131.34 343.004 132.349 342.775 133.433C342.546 134.518 342.596 135.643 342.92 136.703C343.244 137.763 343.832 138.724 344.629 139.496C345.425 140.269 346.405 140.827 347.476 141.12C348.326 141.323 349.194 141.438 350.067 141.464C350.597 141.498 351.144 141.533 351.67 141.61C353.36 141.91 354.942 142.642 356.263 143.735C357.585 144.827 358.599 146.243 359.208 147.844C359.352 148.214 359.579 148.546 359.872 148.814C360.165 149.083 360.516 149.28 360.897 149.392C361.279 149.504 361.681 149.526 362.073 149.458C362.464 149.39 362.835 149.234 363.157 149C363.691 148.562 364.324 148.26 365.001 148.118C365.678 147.977 366.379 148.002 367.044 148.189C367.623 148.491 368.08 148.983 368.339 149.581C368.652 150.246 369.156 150.804 369.788 151.183C371.943 152.222 372.215 157.064 371.556 161.124C370.92 165.037 369.538 167.892 368.194 168.066C367.16 168.2 367.043 168.276 366.972 168.461L366.91 168.627L367.03 168.777C367.608 168.97 368.221 169.035 368.827 168.97Z" fill="#2F2E41"/>
<path d="M347.777 231.823L343.27 216.375C332.83 215.175 310.181 223.299 310.181 223.299L269.957 224.348C268.891 223.696 267.672 223.336 266.423 223.304C265.174 223.271 263.939 223.568 262.842 224.164C261.746 224.76 260.826 225.635 260.176 226.699C259.526 227.763 259.169 228.98 259.14 230.227C259.111 231.474 259.412 232.707 260.012 233.802C260.612 234.897 261.49 235.816 262.557 236.465C263.625 237.114 264.845 237.471 266.094 237.501C267.343 237.53 268.577 237.23 269.672 236.631L319.572 242.197L347.777 231.823Z" fill="#FFB8B8"/>
<path d="M349.274 237.857L364.97 220.396L365.842 208.025C366.004 205.595 365.482 203.169 364.335 201.02C363.187 198.871 361.461 197.085 359.35 195.864C356.477 194.228 353.089 193.741 349.871 194.503C346.652 195.264 343.843 197.216 342.012 199.965C336.466 208.306 330.5 219.583 333.57 225.941L333.601 226.006L349.274 237.857Z" fill="#08C1F9"/>
<path d="M204.601 303.483L163.805 282.635C160.903 281.152 159.942 277.218 161.663 273.866L188.262 222.04C189.983 218.688 193.743 217.168 196.645 218.651L237.441 239.499C240.342 240.982 241.304 244.916 239.583 248.268L212.984 300.094C211.263 303.446 207.503 304.966 204.601 303.483Z" fill="#FA9218"/>
<path d="M197.631 293.899L169.914 279.734C167.196 278.345 166.296 274.661 167.907 271.522L190.006 228.466C191.617 225.327 195.139 223.903 197.857 225.292L231.333 242.4C234.051 243.789 234.951 247.473 233.34 250.612L221.335 274.002C214.158 287.985 209.737 300.086 197.631 293.899Z" fill="white"/>
<path d="M211.335 270.386L186.785 257.84C186.485 257.626 186.272 257.312 186.184 256.955C186.097 256.598 186.141 256.221 186.309 255.894C186.477 255.566 186.758 255.31 187.099 255.172C187.441 255.034 187.821 255.023 188.17 255.141L212.72 267.688C213.02 267.901 213.233 268.215 213.321 268.572C213.408 268.93 213.364 269.306 213.196 269.634C213.028 269.961 212.747 270.217 212.406 270.355C212.064 270.494 211.684 270.504 211.335 270.386Z" fill="#08C1F9"/>
<path d="M189.651 266.035L184.049 263.171C183.749 262.958 183.535 262.644 183.448 262.287C183.361 261.929 183.405 261.552 183.573 261.225C183.741 260.898 184.022 260.642 184.363 260.504C184.705 260.365 185.085 260.354 185.434 260.473L191.036 263.336C191.336 263.549 191.55 263.863 191.637 264.221C191.724 264.578 191.68 264.955 191.512 265.282C191.344 265.61 191.063 265.866 190.722 266.004C190.38 266.142 190 266.153 189.651 266.035Z" fill="#08C1F9"/>
<path d="M196.838 276.437L181.312 268.503C181.012 268.289 180.799 267.975 180.712 267.618C180.624 267.261 180.669 266.884 180.837 266.557C181.005 266.229 181.285 265.973 181.627 265.835C181.968 265.697 182.348 265.686 182.697 265.804L198.223 273.738C198.523 273.952 198.736 274.266 198.823 274.623C198.911 274.981 198.866 275.357 198.698 275.685C198.53 276.012 198.25 276.268 197.908 276.406C197.567 276.544 197.187 276.555 196.838 276.437Z" fill="#08C1F9"/>
<path d="M221.05 251.458L196.5 238.911C196.2 238.698 195.987 238.384 195.899 238.027C195.812 237.669 195.856 237.293 196.024 236.965C196.192 236.638 196.473 236.382 196.814 236.244C197.156 236.105 197.536 236.095 197.885 236.213L222.435 248.759C222.735 248.973 222.948 249.287 223.036 249.644C223.123 250.001 223.078 250.378 222.91 250.705C222.742 251.033 222.462 251.289 222.12 251.427C221.779 251.565 221.399 251.576 221.05 251.458Z" fill="#08C1F9"/>
<path d="M199.366 247.106L193.764 244.243C193.463 244.029 193.25 243.715 193.163 243.358C193.076 243.001 193.12 242.624 193.288 242.297C193.456 241.969 193.736 241.713 194.078 241.575C194.42 241.437 194.8 241.426 195.149 241.544L200.751 244.408C201.051 244.621 201.265 244.935 201.352 245.292C201.439 245.65 201.395 246.026 201.227 246.354C201.059 246.681 200.778 246.937 200.437 247.075C200.095 247.214 199.715 247.224 199.366 247.106Z" fill="#08C1F9"/>
<path d="M206.553 257.509L191.027 249.574C190.727 249.361 190.514 249.047 190.427 248.69C190.339 248.332 190.384 247.955 190.552 247.628C190.72 247.301 191 247.045 191.342 246.906C191.683 246.768 192.063 246.757 192.412 246.876L207.938 254.81C208.238 255.023 208.451 255.337 208.538 255.695C208.626 256.052 208.581 256.429 208.413 256.756C208.245 257.084 207.965 257.34 207.623 257.478C207.282 257.616 206.902 257.627 206.553 257.509Z" fill="#08C1F9"/>
<path d="M170.795 258.364L161.579 224.127L186.208 219.474L184.883 242.974L217.243 276.223C218.956 276.153 220.652 276.582 222.125 277.458C223.599 278.333 224.784 279.618 225.539 281.154C226.293 282.691 226.583 284.413 226.373 286.111C226.163 287.809 225.462 289.409 224.357 290.717C223.251 292.025 221.788 292.983 220.146 293.476C218.504 293.968 216.754 293.973 215.109 293.49C213.464 293.007 211.996 292.057 210.883 290.755C209.77 289.454 209.06 287.857 208.841 286.16L170.795 258.364Z" fill="#A0616A"/>
<path d="M159.059 185.74C150.699 192.325 161.429 229.161 161.429 229.161C163.09 227.342 165.021 254.229 167.051 253.313C172.822 250.712 183.4 241.739 187.478 242.47C189.81 242.889 187.366 224.686 187.366 224.686C187.366 224.686 186.917 214.249 186.072 200.832C185.904 197.034 184.776 193.341 182.792 190.096C180.809 186.85 178.034 184.158 174.728 182.271C174.728 182.271 167.419 179.154 159.059 185.74Z" fill="#3F3D56"/>
<path d="M298.158 334.356L275.896 323.866C275.42 323.643 275.001 323.315 274.67 322.907C274.338 322.499 274.104 322.022 273.985 321.511C273.864 321.011 273.858 320.49 273.968 319.988C274.078 319.485 274.3 319.014 274.619 318.61C281.067 310.386 285.495 300.769 287.548 290.529C287.703 289.745 288.126 289.039 288.744 288.531C289.362 288.023 290.138 287.745 290.939 287.744C302.293 287.783 310.779 291.92 316.159 300.039C316.443 300.461 316.631 300.94 316.71 301.442C316.79 301.944 316.758 302.458 316.618 302.947C313.502 313.662 308.761 323.839 302.56 333.123C302.1 333.825 301.4 334.336 300.591 334.563C299.781 334.79 298.917 334.716 298.158 334.356Z" fill="#FA9218"/>
<path d="M304.706 319.643L287.685 311.623C287.261 311.423 286.934 311.064 286.776 310.624C286.618 310.184 286.642 309.7 286.842 309.277C287.042 308.854 287.402 308.528 287.843 308.371C288.284 308.213 288.769 308.236 289.193 308.436L306.214 316.457C306.424 316.555 306.612 316.695 306.768 316.866C306.924 317.037 307.044 317.238 307.123 317.455C307.201 317.673 307.235 317.904 307.224 318.135C307.213 318.366 307.156 318.593 307.057 318.802C306.958 319.012 306.819 319.199 306.647 319.355C306.475 319.51 306.275 319.631 306.056 319.709C305.838 319.787 305.607 319.821 305.375 319.81C305.143 319.799 304.916 319.742 304.706 319.643Z" fill="white"/>
<path d="M307.351 314.055L290.329 306.035C289.906 305.835 289.579 305.476 289.421 305.036C289.263 304.596 289.286 304.112 289.486 303.689C289.686 303.267 290.046 302.941 290.487 302.783C290.928 302.625 291.414 302.649 291.837 302.848L308.859 310.869C309.282 311.068 309.609 311.428 309.767 311.868C309.925 312.307 309.902 312.792 309.702 313.215C309.502 313.637 309.142 313.963 308.701 314.121C308.26 314.279 307.774 314.255 307.351 314.055Z" fill="white"/>
<path d="M284.607 138.645L283.022 138.818C275.957 111.116 262.264 91.924 243.42 83.3169C219.466 72.3759 189.845 79.723 160.014 104.005C130.031 128.411 103.489 166.963 85.2767 212.559L83.7393 211.857C102.032 166.061 128.71 127.324 158.861 102.782C189.162 78.1161 219.388 70.7151 243.969 81.9427C263.353 90.7963 277.405 110.404 284.607 138.645Z" fill="#F2F2F2"/>
<path d="M109.797 174.724C105.654 183.434 101.712 192.458 98.0829 201.545C77.1966 253.835 66.6124 307.238 67.4773 355.982L65.8449 355.808C64.9791 306.883 75.5938 253.296 96.5455 200.843C100.185 191.731 104.138 182.681 108.294 173.946L109.797 174.724Z" fill="#F2F2F2"/>
<path d="M109.014 210.654C104.871 219.364 100.929 228.388 97.2997 237.475C76.4134 289.765 65.8292 343.167 66.6941 391.911L65.0617 391.737C64.1959 342.812 74.8106 289.226 95.7623 236.772C99.4022 227.66 103.355 218.611 107.51 209.876L109.014 210.654Z" fill="#F2F2F2"/>
<path d="M65.1396 223.721C66.9441 221.014 65.876 217.14 62.754 215.067C59.6319 212.995 55.6382 213.508 53.8337 216.215C52.0292 218.921 53.0973 222.796 56.2193 224.868C59.3413 226.941 63.3351 226.427 65.1396 223.721Z" fill="#FA9218"/>
<path d="M449.386 321.459C451.19 318.753 450.122 314.879 447 312.806C443.878 310.733 439.884 311.247 438.08 313.954C436.275 316.66 437.343 320.534 440.465 322.607C443.587 324.679 447.581 324.166 449.386 321.459Z" fill="#FA9218"/>
</svg>
