<svg width="183" height="78" viewBox="0 0 183 78" fill="none" xmlns="http://www.w3.org/2000/svg">
<path d="M14.4148 44.0471C13.4299 43.551 13.421 42.148 14.3995 41.6395L33.4955 31.7151C34.3923 31.249 35.4649 31.8957 35.4713 32.9064L35.5957 52.5119C35.6022 53.5226 34.5379 54.1829 33.6352 53.7282L14.4148 44.0471Z" fill="white"/>
<path d="M24.4269 52.712C25.3282 53.078 25.5597 54.2474 24.8659 54.9293L15.4906 64.1432C14.6354 64.9837 13.1905 64.3778 13.1905 63.1787L13.1905 50.157C13.1905 49.1973 14.1624 48.543 15.0516 48.9042L24.4269 52.712Z" fill="#4791FF"/>
<path d="M28.7005 26.1053L29.1396 26.866H28.2613L28.7005 26.1053Z" fill="#D9D9D9"/>
<path d="M38.0738 12.1745C39.1384 11.9491 40.1355 12.7738 40.1139 13.8618L39.6423 37.5671C39.6266 38.353 39.0714 39.0243 38.3024 39.1871L15.1065 44.098C14.0419 44.3234 13.0448 43.4988 13.0665 42.4108L13.5381 18.7055C13.5537 17.9196 14.109 17.2482 14.878 17.0854L38.0738 12.1745Z" fill="#B1EDFF"/>
<path d="M48.1607 44.0839V27.6095H59.0169V30.3975H51.6668V34.1359H57.2427V36.7127H51.6668V44.0839H48.1607ZM65.5544 44.4007C63.4564 44.4007 61.8864 43.8023 60.8445 42.6054C59.8166 41.3945 59.3027 39.7752 59.3027 37.7476C59.3027 35.72 59.8166 34.1077 60.8445 32.9109C61.8864 31.7 63.4564 31.0945 65.5544 31.0945C67.6525 31.0945 69.2154 31.7 70.2433 32.9109C71.2853 34.1077 71.8062 35.72 71.8062 37.7476C71.8062 39.7752 71.2853 41.3945 70.2433 42.6054C69.2154 43.8023 67.6525 44.4007 65.5544 44.4007ZM65.5544 42.1196C66.4838 42.1196 67.1667 41.7535 67.6032 41.0213C68.0397 40.2891 68.2579 39.1908 68.2579 37.7265C68.2579 36.2762 68.0397 35.192 67.6032 34.4738C67.1667 33.7417 66.4838 33.3756 65.5544 33.3756C64.6251 33.3756 63.9422 33.7417 63.5057 34.4738C63.0692 35.192 62.851 36.2762 62.851 37.7265C62.851 39.1908 63.0692 40.2891 63.5057 41.0213C63.9422 41.7535 64.6251 42.1196 65.5544 42.1196ZM74.0823 44.0839V31.4113H77.2505V33.3122H77.7574C77.9968 32.7067 78.3769 32.1857 78.8979 31.7492C79.4189 31.3127 80.1722 31.0945 81.1579 31.0945C82.0309 31.0945 82.756 31.2916 83.3333 31.6859C83.9247 32.0661 84.3753 32.6082 84.685 33.3122H85.1919C85.4454 32.6786 85.8397 32.1505 86.3747 31.7281C86.9098 31.3057 87.649 31.0945 88.5924 31.0945C89.9582 31.0945 90.9791 31.538 91.6549 32.4251C92.3308 33.3122 92.6688 34.5161 92.6688 36.0368V44.0839H89.2472V36.6071C89.2472 35.7481 89.1064 35.0793 88.8247 34.6006C88.5431 34.1218 88.0855 33.8825 87.4519 33.8825C86.6775 33.8825 86.0861 34.2063 85.6777 34.854C85.2835 35.5017 85.0863 36.2973 85.0863 37.2407V44.0839H81.6648V36.6071C81.6648 35.7481 81.5239 35.0793 81.2423 34.6006C80.9607 34.1218 80.5031 33.8825 79.8695 33.8825C79.1091 33.8825 78.5248 34.2063 78.1164 34.854C77.7081 35.5017 77.5039 36.2973 77.5039 37.2407V44.0839H74.0823ZM95.6158 44.0839V31.4113H99.0374V44.0839H95.6158ZM97.3266 29.954C96.7211 29.954 96.2635 29.7991 95.9537 29.4893C95.6439 29.1655 95.4891 28.7501 95.4891 28.2432C95.4891 27.7363 95.6439 27.3279 95.9537 27.0182C96.2635 26.6943 96.7211 26.5324 97.3266 26.5324C97.932 26.5324 98.3897 26.6943 98.6994 27.0182C99.0092 27.3279 99.1641 27.7363 99.1641 28.2432C99.1641 28.7501 99.0092 29.1655 98.6994 29.4893C98.3897 29.7991 97.932 29.954 97.3266 29.954ZM102.175 44.0839V31.4113H105.343V33.3122H105.85C106.103 32.6786 106.491 32.1505 107.012 31.7281C107.547 31.3057 108.328 31.0945 109.356 31.0945C110.764 31.0945 111.82 31.538 112.524 32.4251C113.228 33.3122 113.58 34.5161 113.58 36.0368V44.0839H110.159V36.6071C110.159 35.7341 110.004 35.0652 109.694 34.6006C109.384 34.1218 108.877 33.8825 108.173 33.8825C107.356 33.8825 106.723 34.2063 106.272 34.854C105.822 35.4876 105.596 36.2832 105.596 37.2407V44.0839H102.175ZM120.839 44.3373C119.656 44.3373 118.685 44.0557 117.924 43.4925C117.164 42.9152 116.601 42.1267 116.235 41.1269C115.869 40.1272 115.686 38.9937 115.686 37.7265C115.686 36.417 115.869 35.2694 116.235 34.2838C116.615 33.2981 117.185 32.5307 117.946 31.9816C118.706 31.4324 119.663 31.1579 120.818 31.1579C121.705 31.1579 122.43 31.3339 122.993 31.6859C123.571 32.0238 124.007 32.4814 124.303 33.0587H124.81V31.4113H127.978V44.0839H124.81V42.4364H124.303C124.007 42.9715 123.578 43.4221 123.015 43.7882C122.451 44.1543 121.726 44.3373 120.839 44.3373ZM121.726 41.9295C122.585 41.9295 123.268 41.5564 123.775 40.8101C124.296 40.0498 124.556 39.0289 124.556 37.7476C124.556 36.4522 124.296 35.4313 123.775 34.6851C123.268 33.9388 122.585 33.5656 121.726 33.5656C120.952 33.5656 120.339 33.9177 119.889 34.6217C119.452 35.3116 119.234 36.3536 119.234 37.7476C119.234 39.1416 119.452 40.1906 119.889 40.8946C120.339 41.5846 120.952 41.9295 121.726 41.9295ZM131.109 44.0839V31.4113H134.277V33.3122H134.784C135.037 32.6786 135.425 32.1505 135.946 31.7281C136.481 31.3057 137.262 31.0945 138.29 31.0945C139.698 31.0945 140.754 31.538 141.458 32.4251C142.162 33.3122 142.514 34.5161 142.514 36.0368V44.0839H139.093V36.6071C139.093 35.7341 138.938 35.0652 138.628 34.6006C138.318 34.1218 137.811 33.8825 137.107 33.8825C136.29 33.8825 135.657 34.2063 135.206 34.854C134.756 35.4876 134.53 36.2832 134.53 37.2407V44.0839H131.109ZM150.639 44.4007C148.682 44.4007 147.189 43.8023 146.161 42.6054C145.134 41.4085 144.62 39.7893 144.62 37.7476C144.62 35.5933 145.162 33.9458 146.246 32.8053C147.344 31.6648 148.823 31.0945 150.681 31.0945C152.357 31.0945 153.673 31.538 154.631 32.4251C155.588 33.3122 156.159 34.5231 156.342 36.0579H152.962C152.864 35.2272 152.617 34.5935 152.223 34.157C151.829 33.7205 151.322 33.5023 150.702 33.5023C149.886 33.5023 149.259 33.8684 148.823 34.6006C148.386 35.3328 148.168 36.3818 148.168 37.7476C148.168 39.1134 148.379 40.1624 148.802 40.8946C149.238 41.6268 149.865 41.9929 150.681 41.9929C151.315 41.9929 151.829 41.7746 152.223 41.3381C152.617 40.8876 152.864 40.2539 152.962 39.4373H156.342C156.145 40.9439 155.56 42.1478 154.589 43.0489C153.631 43.9501 152.315 44.4007 150.639 44.4007ZM163.859 44.4007C161.86 44.4007 160.332 43.8023 159.276 42.6054C158.234 41.4085 157.713 39.7822 157.713 37.7265C157.713 36.3466 157.945 35.1638 158.41 34.1782C158.889 33.1925 159.579 32.4322 160.48 31.8971C161.395 31.362 162.507 31.0945 163.817 31.0945C165.704 31.0945 167.147 31.6648 168.147 32.8053C169.16 33.9458 169.667 35.6214 169.667 37.8321V38.5502H161.05C161.12 39.6203 161.395 40.4651 161.874 41.0847C162.367 41.6902 163.028 41.9929 163.859 41.9929C164.521 41.9929 165.049 41.7958 165.443 41.4015C165.852 41.0072 166.119 40.5496 166.246 40.0286H169.498C169.372 40.8031 169.09 41.5212 168.654 42.183C168.217 42.8448 167.605 43.3798 166.816 43.7882C166.028 44.1965 165.042 44.4007 163.859 44.4007ZM161.05 36.3958H166.33C166.274 35.4384 166.035 34.6991 165.612 34.1782C165.19 33.6431 164.584 33.3756 163.796 33.3756C163.021 33.3756 162.395 33.629 161.916 34.1359C161.451 34.6287 161.163 35.382 161.05 36.3958Z" fill="white"/>
</svg>
